HIERARCHY
ROOT hip
{
  OFFSET 0.0 0.0 0.0
  CHANNELS 6 Xposition Yposition Zposition Zrotation Yrotation Xrotation
  JOINT torso
  {
    OFFSET 0.0 0.0 0.0
    CHANNELS 3 Zrotation Xrotation Yrotation
    JOINT neck
    {
      OFFSET -20.11218299999996 327.95800799999995 66.30578600000035
      CHANNELS 3 Zrotation Xrotation Yrotation
      JOINT head
      {
        OFFSET 18.28939800000012 288.83178699999996 217.81652800000006
        CHANNELS 3 Zrotation Xrotation Yrotation
        End Site
        {
          OFFSET 0.0 0.0 0.0
        }
      }
    }
    JOINT left_collar
    {
      OFFSET -20.11218299999996 327.95800799999995 66.30578600000035
      CHANNELS 3 Zrotation Xrotation Yrotation
      JOINT left_upper_arm
      {
        OFFSET -127.08163400000001 -16.17407199999991 15.44799799999987
        CHANNELS 3 Zrotation Xrotation Yrotation
        JOINT left_forearm
        {
          OFFSET -234.267792 45.78796399999999 109.31286600000021
          CHANNELS 3 Zrotation Xrotation Yrotation
          JOINT left_hand
          {
            OFFSET -259.114014 -33.25433399999997 16.18847699999992
            CHANNELS 3 Zrotation Xrotation Yrotation
            End Site
            {
              OFFSET 0.0 0.0 0.0
            }
          }
        }
      }
    }
    JOINT right_collar
    {
      OFFSET -20.11218299999996 327.95800799999995 66.30578600000035
      CHANNELS 3 Zrotation Xrotation Yrotation
      JOINT right_upper_arm
      {
        OFFSET 164.513184 1.5733030000000099 4.892333999999892
        CHANNELS 3 Zrotation Xrotation Yrotation
        JOINT right_forearm
        {
          OFFSET 260.742027 48.718444999999974 144.35229500000014
          CHANNELS 3 Zrotation Xrotation Yrotation
          JOINT right_hand
          {
            OFFSET 287.85150899999996 -44.57171600000015 13.96813899999961
            CHANNELS 3 Zrotation Xrotation Yrotation
            End Site
            {
              OFFSET 0.0 0.0 0.0
            }
          }
        }
      }
    }
  }
}
MOTION
Frames: 17
Frame Time: 0.01
-224.30950214202383 268.1680031325081 1418.145818303785 -0.265410780107838 2.277770725606488 -22.11700892937682 0.37098674851592595 1.7702433119304941 0.03942672637388491 1.5071215964243845 -15.328003041517885 -0.3293237115126065 0.0 0.0 0.0 0.8697717775510001 1.1442781967357416 -7.612971329455677 78.43767687086991 25.32392570341603 18.83253720892126 13.478733141518063 5.021242208314925 -16.346749888369175 0.0 0.0 0.0 -0.12801914354796637 -0.006265047652534964 1.1922368402593884 -55.184143133474585 20.128089165587852 -24.57132043492569 -48.58619839659413 5.647948334958076 4.5121511589174315 0.0 0.0 0.0
-224.2655095480816 268.10965501635627 1418.2013984075263 -0.2686761808216846 2.251705406270619 -22.138247477606043 0.38819365439683806 1.76908636393052 0.036128090689990976 1.494952464541401 -15.312607789650551 -0.32025801676155574 0.0 0.0 0.0 0.8768613640946784 1.1449724845537488 -7.608184753319034 78.42064177478086 25.31800618421267 18.83307625712042 13.486404456679148 5.0245822421949455 -16.353111130284162 0.0 0.0 0.0 -0.13124615256220684 -0.006070081300073242 1.184474266787197 -55.192627917615866 20.132435067710947 -24.566501446093497 -48.57662728178548 5.648491879141081 4.514787398798199 0.0 0.0 0.0
-224.22046768697382 268.04987869823594 1418.258197746957 -0.27181042852171977 2.2251013656206444 -22.16043323904501 0.40536829888759257 1.7680962698128986 0.03284597114621525 1.4826484207092006 -15.297198750278682 -0.31108544758478585 0.0 0.0 0.0 0.8840514802156588 1.1456237346336304 -7.602951588853878 78.40321219312519 25.312044274692592 18.83346443272907 13.494540950163833 5.0279891467220965 -16.35933269169506 0.0 0.0 0.0 -0.1344383745429077 -0.005882087385588439 1.1773241859942196 -55.20089110166485 20.136765585323676 -24.56153966746693 -48.5636456033091 5.650145148301395 4.519763123398448 0.0 0.0 0.0
-224.17356977391682 267.9880367326281 1418.3163243790727 -0.27466460490538097 2.1976825960733612 -22.183907771959603 0.4223725259608534 1.767378090866659 0.029613187552168515 1.4702042835997633 -15.281808729677884 -0.3018002559165619 0.0 0.0 0.0 0.89125625374762 1.1462030421382186 -7.597181988449811 78.38558103366849 25.306085300874614 18.83373341623279 13.503110658296892 5.031434386028096 -16.365331749125602 0.0 0.0 0.0 -0.13757141425403113 -0.005703704250369643 1.1709922942441298 -55.208746266070136 20.141042357368082 -24.556383046668667 -48.54695069389393 5.6531218966478205 4.527464454799453 0.0 0.0 0.0
-224.12394479359048 267.923460591837 1418.3758571537526 -0.27708965290340204 2.16917065133842 -22.209018507084895 0.43907196613737126 1.7670270029643196 0.026461267463263587 1.457614489821982 -15.266465497689516 -0.29239662475576395 0.0 0.0 0.0 0.8983974910652135 1.1466836164734597 -7.590790844824404 78.36793412420009 25.300174073585215 18.833911689425303 13.512081777614354 5.0348895748363915 -16.371026082362828 0.0 0.0 0.0 -0.14062251401634113 -0.005537381118665082 1.1656725564727513 -55.2160073079107 20.145226011632836 -24.550982505403674 -48.52629292287386 5.657615232168483 4.538237503954565 0.0 0.0 0.0
-224.0706804926799 267.8554744627611 1418.4368312798651 -0.27894052604542297 2.139295696038444 -22.236105696595423 0.4553384272604466 1.7671244909865327 0.023419735910562334 1.4448749963691498 -15.25119209451611 -0.2828701877094106 0.0 0.0 0.0 0.9054067186355856 1.1470417962989587 -7.583702285588134 78.35044662549281 25.29435420972137 18.83402366061941 13.521422463232897 5.0383270273964635 -16.376336358973028 0.0 0.0 0.0 -0.1435710841241808 -0.005385304729270123 1.1615403180910047 -55.22249318611794 20.149276757921353 -24.545294307449826 -48.50148924292626 5.663789493299336 4.552373646829621 0.0 0.0 0.0
-224.01284764519343 267.78341935351403 1418.4992252107343 -0.28008002088165973 2.1078070200084764 -22.265489462799888 0.47105191220216625 1.7677350293433445 0.020515502466198328 1.4319851531597723 -15.236007092692692 -0.27321952609467953 0.0 0.0 0.0 0.912226938943553 1.147258000947375 -7.5758540931832865 78.33327999256129 25.28866747199284 18.834089072420657 13.531100362945503 5.041720274318464 -16.381188511501346 0.0 0.0 0.0 -0.14639912913367423 -0.005249334748995684 1.1587457969106996 -55.22803260173389 20.153155092109284 -24.53928206574443 -48.47243596325997 5.6717728029170225 4.570095856053709 0.0 0.0 0.0
-223.94952480092678 267.70667660067465 1418.5629495336423 -0.2803821688892436 2.0744825566187464 -22.29745743066893 0.48610223187964346 1.768903395926024 0.017772362854477256 1.4189494383081955 -15.220924759988526 -0.26344755975415873 0.0 0.0 0.0 0.9188140346320063 1.1473175844356314 -7.567201902534542 78.31657954811337 25.283153120118918 18.834122741569697 13.541081955430128 5.045044547110722 -16.38551614853663 0.0 0.0 0.0 -0.14909156075811406 -0.005130949615862455 1.1574081774148066 -55.23246847148264 20.15682261699857 -24.532918254811978 -48.43912010543283 5.681650663574734 4.591546717124278 0.0 0.0 0.0
-223.87982272015168 267.6246898972439 1418.6278384570803 -0.2797351017795046 2.039136978855759 -22.332253377787172 0.500390223338889 1.7706527541964074 0.015210623949914293 1.405778951028348 -15.20595508229663 -0.2535627489766857 0.0 0.0 0.0 0.925137718446647 1.147211555594375 -7.557723059960799 78.30047275189443 25.27784726226227 18.83413469912301 13.55133178718954 5.048277236390259 -16.389262942407502 0.0 0.0 0.0 -0.1516363993426266 -0.005031203624779858 1.157610488723831 -55.2356620670601 20.160242977518248 -24.52618512994756 -48.401628653030514 5.693460936715471 4.616778745162928 0.0 0.0 0.0
-223.8029077261245 267.53698502331923 1418.693644361476 -0.27804333947427673 2.0016280053902284 -22.370067272677225 0.5138286144380901 1.772983615375252 0.012846853600770638 1.3924925690929684 -15.191103622584745 -0.243580033819594 0.0 0.0 0.0 0.9311819026689068 1.1469371266830504 -7.547420050570962 78.2850682658258 25.272782198724478 18.834130802900155 13.561811716016209 5.0513983341183994 -16.392384942029636 0.0 0.0 0.0 -0.15402487413143603 -0.00495069542687448 1.159395407701319 -55.2374967082474 20.163382896824892 -24.519074997884445 -48.360154991448596 5.707190511333524 4.64574758269452 0.0 0.0 0.0
-223.71802327402597 267.44318655781575 1418.760035718832 -0.2752294826525128 1.9618606322341263 -22.411027010212965 0.5263425947632889 1.7758737596912821 0.010693751035853202 1.379117698936571 -15.17637121111373 -0.23352145328139765 0.0 0.0 0.0 0.9369443696259488 1.1464980555389728 -7.536323407730107 78.27045590583967 25.26798576001054 18.834113871251382 13.572480266116141 5.054390872558482 -16.394852770785914 0.0 0.0 0.0 -0.15625143573840802 -0.004889547812752242 1.1627620990738017 -55.2378809114278 20.16621328896495 -24.511589824359636 -48.315001858349014 5.722773913317636 4.678308596846672 0.0 0.0 0.0
-223.62450913950647 267.34303098224217 1418.8265984987938 -0.2712353206952551 1.9197891107307954 -22.455192100426622 0.5378701543475419 1.7792791561255696 0.008760130382254688 1.3656905744208376 -15.161753483063647 -0.2234164082683233 0.0 0.0 0.0 0.9424356758062865 1.145904754677414 -7.524494005568249 78.25670752164736 25.263480653501293 18.83408533725642 13.583292184387744 5.057241372573009 -16.396653682439176 0.0 0.0 0.0 -0.15831369114920665 -0.004847398772264523 1.1676641912961805 -55.236750905532254 20.168710414452793 -24.5037401973969 -48.26658019577432 5.740094034017154 4.714217299957606 0.0 0.0 0.0
-223.52181776570706 267.23637575488766 1418.892840970682 -0.2660223902348951 1.8754166159942984 -22.50254951979046 0.5483622410474828 1.7831358750438047 0.0070510084788494645 1.3522560910538861 -15.147240302059938 -0.21330155598942285 0.0 0.0 0.0 0.9476773080374506 1.145174154529558 -7.512024613659466 78.2438787582243 25.25928384295324 18.83404735444674 13.594198267317324 5.059940310027578 -16.39779345058133 0.0 0.0 0.0 -0.1602122639864414 -0.004823404224721739 1.1740089829440516 -55.23407243725293 20.17085703802101 -24.495543691707663 -48.21540341624566 5.758985064733898 4.75313388536157 0.0 0.0 0.0
-223.40952746088627 267.12320412623734 1418.958201597343 -0.25957203861007344 1.8287926869326965 -22.55301187700537 0.5577827729237645 1.7873629344574404 0.0055677868810945835 1.3388671912615093 -15.132815129337917 -0.20322034555275034 0.0 0.0 0.0 0.9526992088867842 1.1443293252960371 -7.499040579688996 78.23201154394991 25.25540599053501 18.834005212612407 13.60514551591888 5.062482601662802 -16.398298049417313 0.0 0.0 0.0 -0.16195057543450683 -0.0048162531480031925 1.1816579618636918 -55.22984180021985 20.17264354331339 -24.487022701555446 -48.16207677270297 5.779237614692517 4.7946319974140765 0.0 0.0 0.0
-223.28735229197574 267.0036256670538 1419.0220595168837 -0.2518850589442949 1.780008658589071 -22.606417969366873 0.5661085309590796 1.7918659590273718 0.004308515430209799 1.3255838390074863 -15.118454414103647 -0.19322222199828598 0.0 0.0 0.0 0.9575368775918046 1.143398880355991 -7.485699515542099 78.22113703869363 25.251850990055548 18.833969859550518 13.61607768184492 5.064868104556959 -16.398215051833628 0.0 0.0 0.0 -0.16353453861244308 -0.004824195817493469 1.1904286861057387 -55.224086040550866 20.17406895715602 -24.478201829191587 -48.107281764902424 5.80060586866818 4.838211642726933 0.0 0.0 0.0
-223.1551486587996 266.8778726703681 1419.0837469407693 -0.24298096745568684 1.7291914317323105 -22.662535716642996 0.573328950551366 1.796541471192588 0.0032682215872847542 1.3124716368109348 -15.104127088651879 -0.18336153743489228 0.0 0.0 0.0 0.9622283146893283 1.1424162005751965 -7.472189896163778 78.21127868356847 25.2486156112147 18.83396028709697 13.626936288289599 5.067102120227747 -16.39761464244504 0.0 0.0 0.0 -0.16497216230548134 -0.00484508547678116 1.2000980260199503 -55.21686231170185 20.17514183501289 -24.469104935406154 -48.05175583766932 5.822816513508285 4.883315900707279 0.0 0.0 0.0
-223.01291865467394 266.7462927524583 1419.1425626730097 -0.2328969885402336 1.6764960163204026 -22.721067370329237 0.5794458240020914 1.8012815895853032 0.0024392875115428385 1.299600145694062 -15.089794253741475 -0.17369621382306694 0.0 0.0 0.0 0.9668110982934329 1.141418528882977 -7.458728527851397 78.20245495514642 25.24568926108752 18.834005541044775 13.63766222487423 5.069195894723606 -16.39659013212423 0.0 0.0 0.0 -0.16627306684871557 -0.004876433170001736 1.2104067139096313 -55.208256369996306 20.175880958121205 -24.459751977128782 -47.99626804327314 5.84557903626703 4.929350808560961 0.0 0.0 0.0
